<?xml version="1.0" standalone="no"?>
<!DOCTYPE svg PUBLIC "-//W3C//DTD SVG 20010904//EN"
 "http://www.w3.org/TR/2001/REC-SVG-20010904/DTD/svg10.dtd">
<svg version="1.0" xmlns="http://www.w3.org/2000/svg"
 width="500.000000pt" height="500.000000pt" viewBox="0 0 500.000000 500.000000"
 preserveAspectRatio="xMidYMid meet">
<metadata>
Created by potrace 1.11, written by Peter Selinger 2001-2013
</metadata>
<g transform="translate(0.000000,500.000000) scale(0.100000,-0.100000)"
fill="#000000" stroke="none">
<path d="M0 2500 l0 -2500 2500 0 2500 0 0 2500 0 2500 -2500 0 -2500 0 0
-2500z m2708 2090 c534 -58 995 -293 1355 -690 260 -286 435 -648 509 -1050
31 -167 31 -533 0 -700 -205 -1117 -1206 -1864 -2322 -1734 -954 111 -1723
880 -1834 1834 -136 1166 694 2208 1864 2339 110 12 316 13 428 1z"/>
<path d="M1682 3542 l-382 -487 290 -3 290 -2 0 -215 0 -215 -540 0 -540 0 0
-135 0 -135 540 0 540 0 0 -690 0 -690 250 0 250 0 0 690 0 690 -250 0 -250 0
0 135 0 135 250 0 250 0 0 705 0 705 -157 0 -158 0 -383 -488z"/>
<path d="M2620 3325 l0 -705 250 0 250 0 0 -135 0 -135 -250 0 -250 0 0 -690
0 -690 250 0 250 0 0 690 0 690 540 0 540 0 0 135 0 135 -540 0 -540 0 0 215
0 215 290 2 290 3 -382 488 -383 487 -157 0 -158 0 0 -705z"/>
</g>
</svg>
